<?xml version="1.0"?>
<svg xmlns="http://www.w3.org/2000/svg" xmlns:xlink="http://www.w3.org/1999/xlink" xmlns:svgjs="http://svgjs.com/svgjs" version="1.1" width="512" height="512" x="0" y="0" viewBox="0 0 511.999 511" style="enable-background:new 0 0 512 512" xml:space="preserve" class=""><g><path xmlns="http://www.w3.org/2000/svg" d="m146.796875 368.710938h-88.433594c-6.601562 0-12-5.398438-12-12v-269.175782c0-6.601562 5.398438-12.003906 12-12.003906h88.433594c6.597656 0 12 5.402344 12 12.003906v269.175782c0 6.601562-5.398437 12-12 12zm0 0" fill="#43cd8e" data-original="#43cd8e" style="" class=""/><path xmlns="http://www.w3.org/2000/svg" d="m76.449219 356.710938v-269.175782c0-6.601562 5.398437-12.003906 12-12.003906h-30.085938c-6.601562 0-12 5.402344-12 12.003906v269.175782c0 6.601562 5.398438 12 12 12h30.085938c-6.601563 0-12-5.398438-12-12zm0 0" fill="#00b965" data-original="#00b965" style="" class=""/><path xmlns="http://www.w3.org/2000/svg" d="m46.363281 121.929688h112.433594v26.695312h-112.433594zm0 0" fill="#00b965" data-original="#00b965" style="" class=""/><path xmlns="http://www.w3.org/2000/svg" d="m46.363281 121.929688h30.085938v26.695312h-30.085938zm0 0" fill="#00a855" data-original="#00a855" style=""/><path xmlns="http://www.w3.org/2000/svg" d="m46.363281 148.625h112.433594v26.699219h-112.433594zm0 0" fill="#6fd6a2" data-original="#6fd6a2" style="" class=""/><path xmlns="http://www.w3.org/2000/svg" d="m46.363281 148.625h30.085938v26.699219h-30.085938zm0 0" fill="#43cd8e" data-original="#43cd8e" style="" class=""/><path xmlns="http://www.w3.org/2000/svg" d="m46.363281 268.921875h112.433594v26.699219h-112.433594zm0 0" fill="#00b965" data-original="#00b965" style="" class=""/><path xmlns="http://www.w3.org/2000/svg" d="m46.363281 268.921875h30.085938v26.699219h-30.085938zm0 0" fill="#00a855" data-original="#00a855" style=""/><path xmlns="http://www.w3.org/2000/svg" d="m46.363281 295.621094h112.433594v26.699218h-112.433594zm0 0" fill="#6fd6a2" data-original="#6fd6a2" style="" class=""/><path xmlns="http://www.w3.org/2000/svg" d="m46.363281 295.621094h30.085938v26.699218h-30.085938zm0 0" fill="#43cd8e" data-original="#43cd8e" style="" class=""/><path xmlns="http://www.w3.org/2000/svg" d="m228.476562 368.710938h-57.679687c-6.597656 0-12-5.398438-12-12v-337c0-6.601563 5.402344-12.003907 12-12.003907h57.679687c6.601563 0 12 5.402344 12 12.003907v337c0 6.601562-5.398437 12-12 12zm0 0" fill="#ffea7e" data-original="#ffea7e" style="" class=""/><path xmlns="http://www.w3.org/2000/svg" d="m188.882812 356.710938v-337c0-6.601563 5.398438-12.003907 12-12.003907h-30.085937c-6.597656 0-12 5.402344-12 12.003907v337c0 6.601562 5.402344 12 12 12h30.085937c-6.601562 0-12-5.398438-12-12zm0 0" fill="#ffd500" data-original="#ffd500" style="" class=""/><path xmlns="http://www.w3.org/2000/svg" d="m340.910156 368.710938h-88.433594c-6.597656 0-12-5.398438-12-12v-337c0-6.601563 5.402344-12.003907 12-12.003907h88.433594c6.601563 0 12.003906 5.402344 12.003906 12.003907v337c0 6.601562-5.402343 12-12.003906 12zm0 0" fill="#ff646f" data-original="#ff646f" style="" class=""/><path xmlns="http://www.w3.org/2000/svg" d="m270.5625 356.710938v-337c0-6.601563 5.398438-12.003907 12-12.003907h-30.085938c-6.597656 0-12 5.402344-12 12.003907v337c0 6.601562 5.402344 12 12 12h30.085938c-6.601562 0-12-5.398438-12-12zm0 0" fill="#ff4755" data-original="#ff4755" style="" class=""/><path xmlns="http://www.w3.org/2000/svg" d="m453.347656 368.710938h-88.433594c-6.601562 0-12-5.398438-12-12v-269.175782c0-6.601562 5.398438-12.003906 12-12.003906h88.433594c6.601563 0 12 5.402344 12 12.003906v269.175782c0 6.601562-5.398437 12-12 12zm0 0" fill="#60b8ff" data-original="#60b8ff" style="" class=""/><path xmlns="http://www.w3.org/2000/svg" d="m383 356.710938v-269.175782c0-6.601562 5.398438-12.003906 12-12.003906h-30.085938c-6.601562 0-12 5.402344-12 12.003906v269.175782c0 6.601562 5.398438 12 12 12h30.085938c-6.601562 0-12-5.398438-12-12zm0 0" fill="#22a7ff" data-original="#22a7ff" style="" class=""/><path xmlns="http://www.w3.org/2000/svg" d="m310.929688 40.78125h-28.066407c-5.648437 0-10.269531 4.621094-10.269531 10.265625v274.328125c0 5.644531 4.621094 10.265625 10.269531 10.265625h28.066407c5.648437 0 10.269531-4.621094 10.269531-10.265625v-274.328125c0-5.644531-4.621094-10.265625-10.269531-10.265625zm0 0" fill="#ff4755" data-original="#ff4755" style="" class=""/><path xmlns="http://www.w3.org/2000/svg" d="m302.679688 325.375v-274.328125c0-5.304687 4.082031-9.703125 9.261718-10.214844-.332031-.035156-.667968-.050781-1.011718-.050781h-28.066407c-5.648437 0-10.269531 4.621094-10.269531 10.265625v274.328125c0 5.644531 4.621094 10.265625 10.269531 10.265625h28.066407c.339843 0 .679687-.019531 1.011718-.050781-5.179687-.511719-9.261718-4.910156-9.261718-10.214844zm0 0" fill="#fc2b3a" data-original="#fc2b3a" style="" class=""/><path xmlns="http://www.w3.org/2000/svg" d="m158.796875 75.652344h81.679687v225.117187h-81.679687zm0 0" fill="#ffd500" data-original="#ffd500" style="" class=""/><path xmlns="http://www.w3.org/2000/svg" d="m158.796875 75.652344h30.085937v225.117187h-30.085937zm0 0" fill="#fbc700" data-original="#fbc700" style="" class=""/><path xmlns="http://www.w3.org/2000/svg" d="m352.914062 121.929688h112.433594v26.695312h-112.433594zm0 0" fill="#0094fd" data-original="#0094fd" style="" class=""/><path xmlns="http://www.w3.org/2000/svg" d="m352.914062 121.929688h30.082032v26.695312h-30.082032zm0 0" fill="#0083fd" data-original="#0083fd" style=""/><path xmlns="http://www.w3.org/2000/svg" d="m352.914062 148.625h112.433594v26.699219h-112.433594zm0 0" fill="#8bcaff" data-original="#8bcaff" style="" class=""/><path xmlns="http://www.w3.org/2000/svg" d="m352.914062 148.625h30.082032v26.699219h-30.082032zm0 0" fill="#60b8ff" data-original="#60b8ff" style="" class=""/><path xmlns="http://www.w3.org/2000/svg" d="m424.058594 409.136719v75.9375c0 6.84375 5.546875 12.445312 12.324218 12.445312h16.644532c6.777344 0 12.320312-5.601562 12.320312-12.445312v-75.9375zm0 0" fill="#87523e" data-original="#87523e" style="" class=""/><path xmlns="http://www.w3.org/2000/svg" d="m46.363281 409.136719v75.9375c0 6.84375 5.542969 12.445312 12.324219 12.445312h16.640625c6.777344 0 12.324219-5.601562 12.324219-12.445312v-75.9375zm0 0" fill="#87523e" data-original="#87523e" style="" class=""/><path xmlns="http://www.w3.org/2000/svg" d="m453.726562 485.074219v-75.9375h-29.667968v75.9375c0 6.84375 5.546875 12.445312 12.324218 12.445312h16.644532c2.386718 0 4.617187-.707031 6.511718-1.910156-3.480468-2.203125-5.8125-6.101563-5.8125-10.535156zm0 0" fill="#7c4b37" data-original="#7c4b37" style="" class=""/><path xmlns="http://www.w3.org/2000/svg" d="m76.03125 485.074219v-75.9375h-29.667969v75.9375c0 6.84375 5.542969 12.445312 12.324219 12.445312h16.640625c2.390625 0 4.621094-.707031 6.515625-1.910156-3.480469-2.203125-5.8125-6.101563-5.8125-10.535156zm0 0" fill="#7c4b37" data-original="#7c4b37" style="" class=""/><path xmlns="http://www.w3.org/2000/svg" d="m492.03125 368.710938h-472.351562c-6.777344 0-12.324219 5.546874-12.324219 12.324218v16.644532c0 6.777343 5.546875 12.324218 12.324219 12.324218h472.351562c6.777344 0 12.324219-5.546875 12.324219-12.324218v-16.644532c0-6.777344-5.546875-12.324218-12.324219-12.324218zm0 0" fill="#945b44" data-original="#945b44" style=""/><path xmlns="http://www.w3.org/2000/svg" d="m492.03125 379.832031h-472.351562c-4.285157 0-8.070313-2.21875-10.28125-5.558593-1.285157 1.945312-2.042969 4.265624-2.042969 6.761718v16.644532c0 6.777343 5.546875 12.320312 12.324219 12.320312h472.351562c6.777344 0 12.324219-5.542969 12.324219-12.320312v-16.644532c0-2.492187-.757813-4.816406-2.042969-6.761718-2.210938 3.339843-5.996094 5.558593-10.28125 5.558593zm0 0" fill="#87523e" data-original="#87523e" style="" class=""/><path xmlns="http://www.w3.org/2000/svg" d="m352.914062 268.921875h112.433594v26.699219h-112.433594zm0 0" fill="#0094fd" data-original="#0094fd" style="" class=""/><path xmlns="http://www.w3.org/2000/svg" d="m352.914062 268.921875h30.082032v26.699219h-30.082032zm0 0" fill="#0083fd" data-original="#0083fd" style=""/><path xmlns="http://www.w3.org/2000/svg" d="m352.914062 295.621094h112.433594v26.699218h-112.433594zm0 0" fill="#8bcaff" data-original="#8bcaff" style="" class=""/><path xmlns="http://www.w3.org/2000/svg" d="m352.914062 295.621094h30.082032v26.699218h-30.082032zm0 0" fill="#60b8ff" data-original="#60b8ff" style="" class=""/><path xmlns="http://www.w3.org/2000/svg" d="m311.078125 33.570312h-28.070313c-9.796874 0-17.769531 7.972657-17.769531 17.769532v274.324218c0 9.796876 7.972657 17.769532 17.769531 17.769532h28.070313c9.796875 0 17.769531-7.972656 17.769531-17.769532v-274.324218c-.003906-9.796875-7.972656-17.769532-17.769531-17.769532zm2.765625 292.09375c0 1.5-1.269531 2.769532-2.769531 2.769532h-28.066407c-1.5 0-2.769531-1.269532-2.769531-2.769532v-274.324218c0-1.5 1.269531-2.769532 2.769531-2.769532h28.066407c1.5 0 2.769531 1.269532 2.769531 2.769532zm0 0" fill="#000000" data-original="#000000" style="" class=""/><path xmlns="http://www.w3.org/2000/svg" d="m199.78125 101.839844c-4.140625 0-7.5 3.359375-7.5 7.5v154.695312c0 4.144532 3.359375 7.5 7.5 7.5 4.144531 0 7.503906-3.355468 7.503906-7.5v-154.695312c0-4.140625-3.359375-7.5-7.503906-7.5zm0 0" fill="#000000" data-original="#000000" style="" class=""/><path xmlns="http://www.w3.org/2000/svg" d="m492.175781 361.503906h-19.726562c.34375-1.449218.542969-2.949218.542969-4.5 0-3.945312 0-113 0-119.789062 0-4.144532-3.355469-7.5-7.5-7.5-4.140626 0-7.5 3.355468-7.5 7.5v24.496094h-97.433594v-78.59375h97.433594v19.09375c0 4.144531 3.359374 7.5 7.5 7.5 4.144531 0 7.5-3.355469 7.5-7.5 0-12.414063 0-101.765626 0-114.386719 0-10.753907-8.746094-19.5-19.5-19.5h-88.433594c-1.550782 0-3.054688.199219-4.5.542969v-48.867188c0-10.753906-8.75-19.5-19.5-19.5h-88.433594c-4.527344 0-8.6875 1.5625-12.003906 4.160156-3.3125-2.597656-7.472656-4.160156-12-4.160156h-57.679688c-10.75 0-19.5 8.746094-19.5 19.5v48.867188c-1.449218-.34375-2.949218-.542969-4.5-.542969h-88.433594c-10.75 0-19.5 8.746093-19.5 19.5v269.179687c0 1.550782.199219 3.050782.542969 4.5h-19.726562c-10.929688 0-19.824219 8.890625-19.824219 19.824219v16.640625c0 10.933594 8.894531 19.824219 19.824219 19.824219h19.183593v67.695312c0 10.929688 8.890626 19.824219 19.820313 19.824219h16.644531c10.929688 0 19.824219-8.894531 19.824219-19.824219v-67.695312h143.203125c4.140625 0 7.5-3.359375 7.5-7.5 0-4.144531-3.359375-7.5-7.5-7.5h-218.675781c-2.613281 0-4.824219-2.210938-4.824219-4.824219v-16.640625c0-2.617187 2.210938-4.824219 4.824219-4.824219h472.351562c2.613281 0 4.824219 2.207032 4.824219 4.824219v16.640625c0 2.613281-2.210938 4.824219-4.824219 4.824219h-218.675781c-4.144531 0-7.5 3.355469-7.5 7.5 0 4.140625 3.355469 7.5 7.5 7.5h143.203125v67.695312c0 10.929688 8.894531 19.824219 19.824219 19.824219h16.644531c10.929687 0 19.820313-8.894531 19.820313-19.824219v-67.695312h19.183593c10.933594 0 19.824219-8.894531 19.824219-19.824219v-16.640625c0-10.933594-8.890625-19.824219-19.824219-19.824219zm-411.882812 123.984375c0 2.613281-2.207031 4.820313-4.820313 4.820313h-16.644531c-2.613281 0-4.820313-2.207032-4.820313-4.820313v-67.695312h26.285157zm377.699219-344.070312h-97.433594v-11.699219h97.433594zm-97.433594 161.992187h97.433594v11.699219h-97.433594zm97.433594-26.695312v11.695312h-97.433594v-11.695312zm-97.433594-108.601563v-11.699219h97.433594v11.699219zm4.5-84.789062h88.433594c2.4375 0 4.5 2.058593 4.5 4.5v26.894531h-97.433594v-26.894531c0-2.441407 2.058594-4.5 4.5-4.5zm-311.050782 46.394531h97.433594v11.695312h-97.433594zm0 26.699219h97.433594v11.695312h-97.433594zm97.433594 26.695312v78.597657h-97.433594v-78.597657zm-97.433594 93.601563h97.433594v11.695312h-97.433594zm0 26.695312h97.433594v11.699219h-97.433594zm112.433594-215.585937v-4.378907h66.683594v210.113282h-66.683594c0-8.910156 0-200.503906 0-205.734375zm4.5-72.324219h57.679688c2.441406 0 4.503906 2.0625 4.503906 4.5v48.441406h-66.683594v-48.441406c0-2.4375 2.0625-4.5 4.5-4.5zm-112.433594 67.824219h88.433594c2.441406 0 4.5 2.058593 4.5 4.5v26.894531h-97.433594v-26.894531c0-2.441407 2.0625-4.5 4.5-4.5zm0 278.179687c-2.4375 0-4.5-2.0625-4.5-4.5v-26.894531h97.433594v26.894531c0 2.4375-2.058594 4.5-4.5 4.5zm112.433594 0c-2.4375 0-4.5-2.0625-4.5-4.5 0-10.875 0-38.164062 0-48.441406h66.683594v48.441406c0 2.4375-2.0625 4.5-4.503906 4.5zm81.683594 0c-2.441406 0-4.503906-2.0625-4.503906-4.5 0-14.417968 0-324.167968 0-337.003906 0-2.4375 2.0625-4.5 4.503906-4.5h88.433594c2.4375 0 4.5 2.0625 4.5 4.5v337.003906c0 2.4375-2.0625 4.5-4.5 4.5zm112.433594 0c-2.441406 0-4.5-2.0625-4.5-4.5v-26.894531h97.433594v26.894531c0 2.4375-2.0625 4.5-4.5 4.5zm92.933594 123.984375c0 2.613281-2.207032 4.820313-4.820313 4.820313h-16.644531c-2.613282 0-4.820313-2.207032-4.820313-4.820313v-67.695312h26.285157zm0 0" fill="#000000" data-original="#000000" style="" class=""/></g></svg>
