<?xml version="1.0" encoding="UTF-8" standalone="no"?>
<svg
   xmlns:dc="http://purl.org/dc/elements/1.1/"
   xmlns:cc="http://creativecommons.org/ns#"
   xmlns:rdf="http://www.w3.org/1999/02/22-rdf-syntax-ns#"
   xmlns:svg="http://www.w3.org/2000/svg"
   xmlns="http://www.w3.org/2000/svg"
   xmlns:sodipodi="http://sodipodi.sourceforge.net/DTD/sodipodi-0.dtd"
   xmlns:inkscape="http://www.inkscape.org/namespaces/inkscape"
   viewBox="0 0 2828.0509 513.12299"
   width="2828.051"
   height="513.12299"
   version="1.1"
   id="svg3701"
   sodipodi:docname="logo-white.svg"
   inkscape:version="1.0.1 (3bc2e813f5, 2020-09-07)">
  <metadata
     id="metadata3707">
    <rdf:RDF>
      <cc:Work
         rdf:about="">
        <dc:format>image/svg+xml</dc:format>
        <dc:type
           rdf:resource="http://purl.org/dc/dcmitype/StillImage" />
        <dc:title></dc:title>
      </cc:Work>
    </rdf:RDF>
  </metadata>
  <defs
     id="defs3705" />
  <sodipodi:namedview
     pagecolor="#ffffff"
     bordercolor="#666666"
     borderopacity="1"
     objecttolerance="10"
     gridtolerance="10"
     guidetolerance="10"
     inkscape:pageopacity="1"
     inkscape:pageshadow="2"
     inkscape:window-width="1366"
     inkscape:window-height="705"
     id="namedview3703"
     showgrid="true"
     fit-margin-top="0"
     fit-margin-left="0"
     fit-margin-right="0"
     fit-margin-bottom="0"
     inkscape:zoom="0.088732942"
     inkscape:cx="560.86683"
     inkscape:cy="722.84632"
     inkscape:window-x="-8"
     inkscape:window-y="32"
     inkscape:window-maximized="1"
     inkscape:current-layer="svg3701"
     inkscape:document-rotation="0"
     inkscape:pagecheckerboard="false">
    <inkscape:grid
       type="xygrid"
       id="grid1220"
       originx="-67.184988"
       originy="102.403" />
  </sodipodi:namedview>
  <style
     id="style3664">
		tspan { white-space:pre }
		.shp0 { fill: #ffffff } 
	</style>
  <g
     id="g3671"
     transform="translate(-105.39515,92.44045)" />
  <g
     id="g3673"
     transform="translate(-105.39515,92.44045)" />
  <g
     id="g3675"
     transform="translate(-105.39515,92.44045)" />
  <g
     id="g3677"
     transform="translate(-105.39515,92.44045)" />
  <g
     id="g3679"
     transform="translate(-105.39515,92.44045)" />
  <g
     id="g3681"
     transform="translate(-105.39515,92.44045)" />
  <g
     id="g3683"
     transform="translate(-105.39515,92.44045)" />
  <g
     id="g3685"
     transform="translate(-105.39515,92.44045)" />
  <g
     id="g3687"
     transform="translate(-105.39515,92.44045)" />
  <g
     id="g3689"
     transform="translate(-105.39515,92.44045)" />
  <g
     id="g3691"
     transform="translate(-105.39515,92.44045)" />
  <g
     id="g3693"
     transform="translate(-105.39515,92.44045)" />
  <g
     id="g3695"
     transform="translate(-105.39515,92.44045)" />
  <g
     id="g3697"
     transform="translate(-105.39515,92.44045)" />
  <g
     id="g3699"
     transform="translate(-105.39515,92.44045)" />
  <g
     id="g973"
     transform="matrix(1.0038931,0,0,1.014238,0,-0.03812)">
    <path
       d="M 146.79687,368.71094 H 58.363281 c -6.601562,0 -12,-5.39844 -12,-12 V 87.535156 c 0,-6.601562 5.398438,-12.003906 12,-12.003906 h 88.433589 c 6.59766,0 12,5.402344 12,12.003906 V 356.71094 c 0,6.60156 -5.39843,12 -12,12 z m 0,0"
       fill="#43cd8e"
       data-original="#43cd8e"
       class=""
       id="path899" />
    <path
       d="M 76.449219,356.71094 V 87.535156 c 0,-6.601562 5.398437,-12.003906 12,-12.003906 H 58.363281 c -6.601562,0 -12,5.402344 -12,12.003906 V 356.71094 c 0,6.60156 5.398438,12 12,12 h 30.085938 c -6.601563,0 -12,-5.39844 -12,-12 z m 0,0"
       fill="#00b965"
       data-original="#00b965"
       class=""
       id="path901" />
    <path
       d="M 46.363281,121.92969 H 158.79687 V 148.625 H 46.363281 Z m 0,0"
       fill="#00b965"
       data-original="#00b965"
       class=""
       id="path903" />
    <path
       d="M 46.363281,121.92969 H 76.449219 V 148.625 H 46.363281 Z m 0,0"
       fill="#00a855"
       data-original="#00a855"
       id="path905" />
    <path
       d="M 46.363281,148.625 H 158.79687 v 26.69922 H 46.363281 Z m 0,0"
       fill="#6fd6a2"
       data-original="#6fd6a2"
       class=""
       id="path907" />
    <path
       d="m 46.363281,148.625 h 30.085938 v 26.69922 H 46.363281 Z m 0,0"
       fill="#43cd8e"
       data-original="#43cd8e"
       class=""
       id="path909" />
    <path
       d="M 46.363281,268.92187 H 158.79687 v 26.69922 H 46.363281 Z m 0,0"
       fill="#00b965"
       data-original="#00b965"
       class=""
       id="path911" />
    <path
       d="m 46.363281,268.92187 h 30.085938 v 26.69922 H 46.363281 Z m 0,0"
       fill="#00a855"
       data-original="#00a855"
       id="path913" />
    <path
       d="M 46.363281,295.62109 H 158.79687 v 26.69922 H 46.363281 Z m 0,0"
       fill="#6fd6a2"
       data-original="#6fd6a2"
       class=""
       id="path915" />
    <path
       d="m 46.363281,295.62109 h 30.085938 v 26.69922 H 46.363281 Z m 0,0"
       fill="#43cd8e"
       data-original="#43cd8e"
       class=""
       id="path917" />
    <path
       d="m 228.47656,368.71094 h -57.67969 c -6.59765,0 -12,-5.39844 -12,-12 V 19.710938 c 0,-6.601563 5.40235,-12.003907 12,-12.003907 h 57.67969 c 6.60156,0 12,5.402344 12,12.003907 V 356.71094 c 0,6.60156 -5.39844,12 -12,12 z m 0,0"
       fill="#ffea7e"
       data-original="#ffea7e"
       class=""
       id="path919" />
    <path
       d="M 188.88281,356.71094 V 19.710938 c 0,-6.601563 5.39844,-12.003907 12,-12.003907 h -30.08594 c -6.59765,0 -12,5.402344 -12,12.003907 V 356.71094 c 0,6.60156 5.40235,12 12,12 h 30.08594 c -6.60156,0 -12,-5.39844 -12,-12 z m 0,0"
       fill="#ffd500"
       data-original="#ffd500"
       class=""
       id="path921" />
    <path
       d="m 340.91016,368.71094 h -88.4336 c -6.59765,0 -12,-5.39844 -12,-12 V 19.710938 c 0,-6.601563 5.40235,-12.003907 12,-12.003907 h 88.4336 c 6.60156,0 12.0039,5.402344 12.0039,12.003907 V 356.71094 c 0,6.60156 -5.40234,12 -12.0039,12 z m 0,0"
       fill="#ff646f"
       data-original="#ff646f"
       class=""
       id="path923" />
    <path
       d="M 270.5625,356.71094 V 19.710938 c 0,-6.601563 5.39844,-12.003907 12,-12.003907 h -30.08594 c -6.59765,0 -12,5.402344 -12,12.003907 V 356.71094 c 0,6.60156 5.40235,12 12,12 h 30.08594 c -6.60156,0 -12,-5.39844 -12,-12 z m 0,0"
       fill="#ff4755"
       data-original="#ff4755"
       class=""
       id="path925" />
    <path
       d="m 453.34766,368.71094 h -88.4336 c -6.60156,0 -12,-5.39844 -12,-12 V 87.535156 c 0,-6.601562 5.39844,-12.003906 12,-12.003906 h 88.4336 c 6.60156,0 12,5.402344 12,12.003906 V 356.71094 c 0,6.60156 -5.39844,12 -12,12 z m 0,0"
       fill="#60b8ff"
       data-original="#60b8ff"
       class=""
       id="path927" />
    <path
       d="M 383,356.71094 V 87.535156 c 0,-6.601562 5.39844,-12.003906 12,-12.003906 h -30.08594 c -6.60156,0 -12,5.402344 -12,12.003906 V 356.71094 c 0,6.60156 5.39844,12 12,12 H 395 c -6.60156,0 -12,-5.39844 -12,-12 z m 0,0"
       fill="#22a7ff"
       data-original="#22a7ff"
       class=""
       id="path929" />
    <path
       d="m 310.92969,40.78125 h -28.06641 c -5.64844,0 -10.26953,4.621094 -10.26953,10.265625 V 325.375 c 0,5.64453 4.62109,10.26562 10.26953,10.26562 h 28.06641 c 5.64844,0 10.26953,-4.62109 10.26953,-10.26562 V 51.046875 c 0,-5.644531 -4.62109,-10.265625 -10.26953,-10.265625 z m 0,0"
       fill="#ff4755"
       data-original="#ff4755"
       class=""
       id="path931" />
    <path
       d="M 302.67969,325.375 V 51.046875 c 0,-5.304687 4.08203,-9.703125 9.26172,-10.214844 -0.33204,-0.03516 -0.66797,-0.05078 -1.01172,-0.05078 h -28.06641 c -5.64844,0 -10.26953,4.621094 -10.26953,10.265625 V 325.375 c 0,5.64453 4.62109,10.26562 10.26953,10.26562 h 28.06641 c 0.33984,0 0.67969,-0.0195 1.01172,-0.0508 -5.17969,-0.51172 -9.26172,-4.91015 -9.26172,-10.21484 z m 0,0"
       fill="#fc2b3a"
       data-original="#fc2b3a"
       class=""
       id="path933" />
    <path
       d="m 158.79687,75.652344 h 81.67969 V 300.76953 h -81.67969 z m 0,0"
       fill="#ffd500"
       data-original="#ffd500"
       class=""
       id="path935" />
    <path
       d="m 158.79687,75.652344 h 30.08594 V 300.76953 h -30.08594 z m 0,0"
       fill="#fbc700"
       data-original="#fbc700"
       class=""
       id="path937" />
    <path
       d="m 352.91406,121.92969 h 112.4336 V 148.625 h -112.4336 z m 0,0"
       fill="#0094fd"
       data-original="#0094fd"
       class=""
       id="path939" />
    <path
       d="m 352.91406,121.92969 h 30.08203 V 148.625 h -30.08203 z m 0,0"
       fill="#0083fd"
       data-original="#0083fd"
       id="path941" />
    <path
       d="m 352.91406,148.625 h 112.4336 v 26.69922 h -112.4336 z m 0,0"
       fill="#8bcaff"
       data-original="#8bcaff"
       class=""
       id="path943" />
    <path
       d="m 352.91406,148.625 h 30.08203 v 26.69922 h -30.08203 z m 0,0"
       fill="#60b8ff"
       data-original="#60b8ff"
       class=""
       id="path945" />
    <path
       d="m 424.05859,409.13672 v 75.9375 c 0,6.84375 5.54688,12.44531 12.32422,12.44531 h 16.64453 c 6.77735,0 12.32032,-5.60156 12.32032,-12.44531 v -75.9375 z m 0,0"
       fill="#87523e"
       data-original="#87523e"
       class=""
       id="path947" />
    <path
       d="m 46.363281,409.13672 v 75.9375 c 0,6.84375 5.542969,12.44531 12.324219,12.44531 h 16.640625 c 6.777344,0 12.324219,-5.60156 12.324219,-12.44531 v -75.9375 z m 0,0"
       fill="#87523e"
       data-original="#87523e"
       class=""
       id="path949" />
    <path
       d="m 453.72656,485.07422 v -75.9375 h -29.66797 v 75.9375 c 0,6.84375 5.54688,12.44531 12.32422,12.44531 h 16.64453 c 2.38672,0 4.61719,-0.70703 6.51172,-1.91015 -3.48047,-2.20313 -5.8125,-6.10157 -5.8125,-10.53516 z m 0,0"
       fill="#7c4b37"
       data-original="#7c4b37"
       class=""
       id="path951" />
    <path
       d="m 76.03125,485.07422 v -75.9375 H 46.363281 v 75.9375 c 0,6.84375 5.542969,12.44531 12.324219,12.44531 h 16.640625 c 2.390625,0 4.621094,-0.70703 6.515625,-1.91015 -3.480469,-2.20313 -5.8125,-6.10157 -5.8125,-10.53516 z m 0,0"
       fill="#7c4b37"
       data-original="#7c4b37"
       class=""
       id="path953" />
    <path
       d="M 492.03125,368.71094 H 19.679688 c -6.777344,0 -12.324219,5.54687 -12.324219,12.32422 v 16.64453 c 0,6.77734 5.546875,12.32422 12.324219,12.32422 H 492.03125 c 6.77734,0 12.32422,-5.54688 12.32422,-12.32422 v -16.64453 c 0,-6.77735 -5.54688,-12.32422 -12.32422,-12.32422 z m 0,0"
       fill="#945b44"
       data-original="#945b44"
       id="path955" />
    <path
       d="M 492.03125,379.83203 H 19.679688 c -4.285157,0 -8.070313,-2.21875 -10.28125,-5.55859 -1.285157,1.94531 -2.042969,4.26562 -2.042969,6.76172 v 16.64453 C 7.355469,404.45703 12.902344,410 19.679688,410 H 492.03125 c 6.77734,0 12.32422,-5.54297 12.32422,-12.32031 v -16.64453 c 0,-2.49219 -0.75781,-4.81641 -2.04297,-6.76172 -2.21094,3.33984 -5.99609,5.55859 -10.28125,5.55859 z m 0,0"
       fill="#87523e"
       data-original="#87523e"
       class=""
       id="path957" />
    <path
       d="m 352.91406,268.92187 h 112.4336 v 26.69922 h -112.4336 z m 0,0"
       fill="#0094fd"
       data-original="#0094fd"
       class=""
       id="path959" />
    <path
       d="m 352.91406,268.92187 h 30.08203 v 26.69922 h -30.08203 z m 0,0"
       fill="#0083fd"
       data-original="#0083fd"
       id="path961" />
    <path
       d="m 352.91406,295.62109 h 112.4336 v 26.69922 h -112.4336 z m 0,0"
       fill="#8bcaff"
       data-original="#8bcaff"
       class=""
       id="path963" />
    <path
       d="m 352.91406,295.62109 h 30.08203 v 26.69922 h -30.08203 z m 0,0"
       fill="#60b8ff"
       data-original="#60b8ff"
       class=""
       id="path965" />
    <path
       d="m 311.07812,33.570312 h -28.07031 c -9.79687,0 -17.76953,7.972657 -17.76953,17.769532 V 325.66406 c 0,9.79688 7.97266,17.76953 17.76953,17.76953 h 28.07032 c 9.79687,0 17.76953,-7.97265 17.76953,-17.76953 V 51.339844 c -0.004,-9.796875 -7.97266,-17.769532 -17.76954,-17.769532 z m 2.76563,292.093748 c 0,1.5 -1.26953,2.76953 -2.76953,2.76953 h -28.06641 c -1.5,0 -2.76953,-1.26953 -2.76953,-2.76953 V 51.339844 c 0,-1.5 1.26953,-2.769532 2.76953,-2.769532 h 28.06641 c 1.5,0 2.76953,1.269532 2.76953,2.769532 z m 0,0"
       fill="#000000"
       data-original="#000000"
       class=""
       id="path967" />
    <path
       d="m 199.78125,101.83984 c -4.14063,0 -7.5,3.35938 -7.5,7.5 v 154.69532 c 0,4.14453 3.35937,7.5 7.5,7.5 4.14453,0 7.50391,-3.35547 7.50391,-7.5 V 109.33984 c 0,-4.14062 -3.35938,-7.5 -7.50391,-7.5 z m 0,0"
       fill="#000000"
       data-original="#000000"
       class=""
       id="path969" />
    <path
       d="m 492.17578,361.50391 h -19.72656 c 0.34375,-1.44922 0.54297,-2.94922 0.54297,-4.5 0,-3.94532 0,-113 0,-119.78907 0,-4.14453 -3.35547,-7.5 -7.5,-7.5 -4.14063,0 -7.5,3.35547 -7.5,7.5 v 24.4961 h -97.4336 v -78.59375 h 97.4336 v 19.09375 c 0,4.14453 3.35937,7.5 7.5,7.5 4.14453,0 7.5,-3.35547 7.5,-7.5 0,-12.41407 0,-101.76563 0,-114.386721 0,-10.753907 -8.7461,-19.5 -19.5,-19.5 h -88.4336 c -1.55078,0 -3.05468,0.199219 -4.5,0.542969 V 20 c 0,-10.753906 -8.75,-19.5 -19.5,-19.5 H 252.625 c -4.52734,0 -8.6875,1.5625 -12.00391,4.160156 C 237.30859,2.0625 233.14844,0.5 228.62109,0.5 h -57.67968 c -10.75,0 -19.5,8.746094 -19.5,19.5 v 48.867188 c -1.44922,-0.34375 -2.94922,-0.542969 -4.5,-0.542969 H 58.507812 c -10.75,0 -19.5,8.746093 -19.5,19.5 V 357.00391 c 0,1.55078 0.199219,3.05078 0.542969,4.5 H 19.824219 C 8.894531,361.50391 0,370.39453 0,381.32812 v 16.64063 c 0,10.93359 8.894531,19.82422 19.824219,19.82422 h 19.183593 v 67.69531 c 0,10.92969 8.890626,19.82422 19.820313,19.82422 h 16.644531 c 10.929688,0 19.824219,-8.89453 19.824219,-19.82422 V 417.79297 H 238.5 c 4.14062,0 7.5,-3.35938 7.5,-7.5 0,-4.14453 -3.35938,-7.5 -7.5,-7.5 H 19.824219 C 17.210938,402.79297 15,400.58203 15,397.96875 v -16.64063 c 0,-2.61718 2.210938,-4.82421 4.824219,-4.82421 H 492.17578 c 2.61328,0 4.82422,2.20703 4.82422,4.82421 v 16.64063 c 0,2.61328 -2.21094,4.82422 -4.82422,4.82422 H 273.5 c -4.14453,0 -7.5,3.35547 -7.5,7.5 0,4.14062 3.35547,7.5 7.5,7.5 h 143.20312 v 67.69531 c 0,10.92969 8.89454,19.82422 19.82422,19.82422 h 16.64453 c 10.92969,0 19.82032,-8.89453 19.82032,-19.82422 v -67.69531 h 19.18359 c 10.93359,0 19.82422,-8.89453 19.82422,-19.82422 v -16.64063 c 0,-10.93359 -8.89063,-19.82421 -19.82422,-19.82421 z M 80.292969,485.48828 c 0,2.61328 -2.207031,4.82031 -4.820313,4.82031 H 58.828125 c -2.613281,0 -4.820313,-2.20703 -4.820313,-4.82031 V 417.79297 H 80.292969 Z M 457.99219,141.41797 h -97.4336 v -11.69922 h 97.4336 z m -97.4336,161.99219 h 97.4336 v 11.69921 h -97.4336 z m 97.4336,-26.69532 v 11.69532 h -97.4336 v -11.69532 z m -97.4336,-108.60156 v -11.69922 h 97.4336 v 11.69922 z m 4.5,-84.789061 h 88.4336 c 2.4375,0 4.5,2.058593 4.5,4.5 v 26.894531 h -97.4336 V 87.824219 c 0,-2.441407 2.0586,-4.5 4.5,-4.5 z M 54.007812,129.71875 h 97.433598 v 11.69531 H 54.007812 Z m 0,26.69922 h 97.433598 v 11.69531 H 54.007812 Z m 97.433598,26.69531 v 78.59766 H 54.007812 v -78.59766 z m -97.433598,93.60156 h 97.433598 v 11.69532 H 54.007812 Z m 0,26.69532 h 97.433598 v 11.69921 H 54.007812 Z M 166.44141,87.824219 V 83.445312 H 233.125 V 293.55859 h -66.68359 c 0,-8.91015 0,-200.503902 0,-205.734371 z m 4.5,-72.324219 h 57.67968 c 2.44141,0 4.50391,2.0625 4.50391,4.5 V 68.441406 H 166.44141 V 20 c 0,-2.4375 2.0625,-4.5 4.5,-4.5 z M 58.507812,83.324219 h 88.433598 c 2.4414,0 4.5,2.058593 4.5,4.5 V 114.71875 H 54.007812 V 87.824219 c 0,-2.441407 2.0625,-4.5 4.5,-4.5 z m 0,278.179691 c -2.4375,0 -4.5,-2.0625 -4.5,-4.5 v -26.89454 h 97.433598 v 26.89454 c 0,2.4375 -2.0586,4.5 -4.5,4.5 z m 112.433598,0 c -2.4375,0 -4.5,-2.0625 -4.5,-4.5 0,-10.875 0,-38.16407 0,-48.44141 H 233.125 v 48.44141 c 0,2.4375 -2.0625,4.5 -4.50391,4.5 z m 81.68359,0 c -2.44141,0 -4.50391,-2.0625 -4.50391,-4.5 0,-14.41797 0,-324.167972 0,-337.00391 0,-2.4375 2.0625,-4.5 4.50391,-4.5 h 88.43359 c 2.4375,0 4.5,2.0625 4.5,4.5 v 337.00391 c 0,2.4375 -2.0625,4.5 -4.5,4.5 z m 112.43359,0 c -2.4414,0 -4.5,-2.0625 -4.5,-4.5 v -26.89454 h 97.4336 v 26.89454 c 0,2.4375 -2.0625,4.5 -4.5,4.5 z m 92.9336,123.98437 c 0,2.61328 -2.20703,4.82031 -4.82032,4.82031 h -16.64453 c -2.61328,0 -4.82031,-2.20703 -4.82031,-4.82031 v -67.69531 h 26.28516 z m 0,0"
       fill="#000000"
       data-original="#000000"
       class=""
       id="path971" />
  </g>
  <g
     id="g1029"
     transform="matrix(0.89650747,-0.56072597,0.54411627,0.92387426,357.23721,117.45324)">
    <path
       clip-rule="evenodd"
       d="m 390.428,460.419 c 0,7.49 -0.258,13.946 -0.904,19.112 -0.646,5.165 -1.679,9.427 -2.841,12.785 -1.291,3.486 -2.841,5.94 -4.778,7.36 -1.937,1.55 -4.133,2.324 -6.586,2.324 H 151.014 c -8.265,0 -15.238,-2.453 -20.92,-7.361 -5.682,-4.907 -8.523,-12.913 -8.523,-24.019 V 25.883 c 0,-2.453 0.775,-4.778 2.454,-6.844 1.679,-1.937 4.39,-3.616 8.135,-4.907 3.745,-1.291 8.91,-2.195 15.367,-2.97 C 153.984,10.388 161.99,10 171.546,10 c 9.814,0 17.95,0.387 24.277,1.162 6.199,0.775 11.364,1.679 15.109,2.97 3.745,1.291 6.457,2.97 8.135,4.907 1.679,2.066 2.454,4.391 2.454,6.844 V 419.87 H 375.32 c 2.453,0 4.778,0.646 6.586,2.066 1.937,1.42 3.487,3.616 4.778,6.844 1.291,3.099 2.195,7.231 2.841,12.526 0.645,5.166 0.903,11.494 0.903,19.113 z"
       fill="#ffc144"
       fill-rule="evenodd"
       id="path1021" />
    <g
       id="g1027">
      <path
         d="m 399.451,440.095 c -0.781,-6.401 -1.896,-11.2 -3.509,-15.094 -1.96,-4.873 -4.576,-8.484 -7.992,-11.031 -3.477,-2.682 -7.84,-4.099 -12.631,-4.099 H 231.521 V 300.807 c 0,-5.523 -4.477,-10 -10,-10 -5.523,0 -10,4.477 -10,10 v 119.064 c 0,5.523 4.477,10 10,10 H 375.32 c 0.291,0 0.476,0.031 0.568,0.052 0.035,0.026 0.069,0.052 0.104,0.078 0.006,0.004 0.589,0.449 1.407,2.495 0.018,0.043 0.036,0.087 0.054,0.13 0.88,2.114 1.603,5.442 2.149,9.921 0.556,4.451 0.827,10.297 0.827,17.872 0,7.575 -0.271,13.421 -0.827,17.871 -0.495,3.961 -1.301,7.641 -2.332,10.65 -0.708,1.886 -1.253,2.598 -1.38,2.748 -0.078,0.059 -0.155,0.119 -0.231,0.179 -0.119,0.096 -0.178,0.122 -0.178,0.122 -0.002,0 -0.049,0.012 -0.161,0.012 H 151.014 c -5.838,0 -10.543,-1.612 -14.384,-4.93 -3.356,-2.898 -5.059,-8.433 -5.059,-16.45 V 25.883 c 0,-0.143 0,-0.23 0.104,-0.388 0.285,-0.265 1.279,-1.059 3.746,-1.909 2.689,-0.928 7.04,-1.744 13.297,-2.495 6.036,-0.724 13.716,-1.091 22.828,-1.091 9.404,0 17.164,0.366 23.037,1.085 6.161,0.77 10.442,1.588 13.089,2.501 2.466,0.851 3.461,1.643 3.746,1.909 0.104,0.158 0.104,0.245 0.104,0.388 v 184.924 c 0,5.523 4.477,10 10,10 5.523,0 10,-4.477 10,-10 V 25.883 c 0,-4.825 -1.623,-9.372 -4.693,-13.15 -0.066,-0.082 -0.134,-0.163 -0.203,-0.242 C 223.736,9.156 219.553,6.527 214.193,4.678 210.11,3.27 204.828,2.209 197.039,1.236 190.336,0.416 181.759,0 171.546,0 c -9.905,0 -18.387,0.415 -25.211,1.233 -7.898,0.948 -13.275,2.01 -17.435,3.445 -5.36,1.849 -9.543,4.477 -12.433,7.813 -0.069,0.079 -0.136,0.16 -0.202,0.241 -3.071,3.778 -4.694,8.326 -4.694,13.151 V 470.62 c 0,14.091 4.033,24.719 11.986,31.586 7.523,6.498 16.761,9.793 27.456,9.793 H 375.32 c 4.636,0 9.014,-1.518 12.675,-4.391 3.438,-2.584 6.078,-6.454 8.066,-11.82 0.025,-0.067 0.049,-0.135 0.073,-0.203 1.518,-4.386 2.632,-9.37 3.313,-14.815 0.66,-5.282 0.981,-11.939 0.981,-20.352 0,-8.529 -0.311,-14.996 -0.977,-20.323 z"
         id="path1023" />
      <path
         d="m 221.521,245.807 h -0.007 c -5.523,0 -9.996,4.477 -9.996,10 0,5.523 4.48,10 10.003,10 5.523,0 10,-4.477 10,-10 0,-5.523 -4.477,-10 -10,-10 z"
         id="path1025" />
    </g>
  </g>
  <g
     id="g1118"
     transform="translate(1232.841,0.32925)">
    <path
       clip-rule="evenodd"
       d="m 432.199,422.39 c 0,6.162 -0.126,11.445 -0.503,15.721 -0.377,4.276 -1.006,8.049 -1.761,11.068 -0.629,3.144 -1.635,5.785 -2.893,8.049 -1.258,2.138 -3.144,4.653 -5.911,7.42 -2.641,2.767 -7.923,6.414 -15.595,10.816 -7.798,4.276 -17.23,8.552 -28.423,12.577 -11.194,3.899 -23.896,7.294 -38.233,9.936 -14.338,2.641 -29.933,4.024 -46.66,4.024 -32.573,0 -62.003,-5.031 -88.288,-15.092 -26.285,-10.062 -48.672,-25.154 -67.034,-45.151 -18.488,-19.997 -32.574,-44.899 -42.384,-74.957 -9.81,-29.932 -14.715,-64.77 -14.715,-104.512 0,-40.497 5.408,-76.467 16.224,-107.908 10.816,-31.442 25.908,-57.853 45.276,-79.233 C 160.667,53.768 183.934,37.67 211.1,26.602 238.141,15.534 268.074,10 300.773,10 c 13.205,0 25.908,1.132 38.233,3.396 12.325,2.138 23.644,5.031 34.083,8.678 10.439,3.521 19.745,7.672 28.172,12.325 8.301,4.779 14.211,8.804 17.482,12.074 3.27,3.396 5.534,6.163 6.791,8.301 1.258,2.264 2.264,5.031 2.893,8.426 0.755,3.521 1.383,7.546 1.76,12.199 0.378,4.653 0.503,10.313 0.503,17.23 0,7.294 -0.252,13.583 -0.755,18.739 -0.503,5.156 -1.384,9.307 -2.515,12.451 -1.258,3.144 -2.767,5.534 -4.402,6.917 -1.761,1.509 -3.773,2.264 -5.911,2.264 -3.647,0 -8.301,-2.138 -13.96,-6.414 -5.66,-4.276 -12.954,-9.055 -21.884,-14.337 -8.929,-5.282 -19.62,-10.061 -32.071,-14.337 -12.325,-4.276 -27.04,-6.414 -44.27,-6.414 -18.865,0 -35.718,3.899 -50.559,11.571 -14.84,7.797 -27.417,18.739 -37.856,33.077 -10.439,14.463 -18.362,31.819 -23.77,52.193 -5.408,20.249 -8.049,43.264 -8.049,68.795 0,27.92 2.893,52.193 8.678,72.693 5.785,20.374 13.96,37.353 24.65,50.558 10.565,13.206 23.518,23.141 38.611,29.555 15.092,6.54 32.07,9.81 50.935,9.81 17.104,0 31.945,-2.012 44.522,-6.037 12.451,-4.024 23.141,-8.552 32.071,-13.331 9.055,-4.905 16.35,-9.307 22.135,-13.205 5.786,-3.899 10.187,-5.911 13.457,-5.911 2.39,0 4.402,0.503 5.785,1.509 1.509,1.006 2.767,2.893 3.773,5.911 0.88,2.893 1.635,7.043 2.138,12.325 0.505,5.407 0.756,12.45 0.756,21.379 z"
       fill="#ff764e"
       fill-rule="evenodd"
       id="path1110"
       style="fill:#ff646f;fill-opacity:1" />
    <g
       id="g1116">
      <path
         d="m 441.4,400.062 c -0.551,-5.781 -1.4,-10.588 -2.525,-14.288 -0.025,-0.084 -0.053,-0.168 -0.08,-0.251 -1.682,-5.046 -4.152,-8.633 -7.547,-10.957 -3.056,-2.161 -7.026,-3.301 -11.499,-3.301 -5.353,0 -11.227,2.35 -19.045,7.618 -5.838,3.934 -13.007,8.208 -21.266,12.681 -8.758,4.688 -18.995,8.938 -30.399,12.624 -11.53,3.69 -25.484,5.561 -41.474,5.561 -17.402,0 -33.201,-3.023 -47.024,-9.013 -13.506,-5.739 -25.185,-14.688 -34.75,-26.644 -9.667,-11.941 -17.339,-27.753 -22.799,-46.982 -2.293,-8.129 -4.137,-17.038 -5.478,-26.481 -0.777,-5.468 -5.842,-9.268 -11.307,-8.495 -5.468,0.777 -9.271,5.839 -8.495,11.307 1.466,10.324 3.496,20.115 6.036,29.116 6.207,21.858 15.122,40.066 26.461,54.074 11.62,14.524 25.921,25.462 42.443,32.484 16.283,7.056 34.758,10.634 54.912,10.634 18.062,0 34.066,-2.191 47.598,-6.521 12.563,-4.061 23.907,-8.782 33.757,-14.054 8.866,-4.802 16.592,-9.414 22.96,-13.705 4.791,-3.229 7.05,-3.987 7.749,-4.16 0.048,0.124 0.098,0.261 0.15,0.415 0.423,1.429 1.172,4.571 1.709,10.213 0.473,5.079 0.712,11.961 0.712,20.454 0,6.533 -0.147,11.249 -0.464,14.84 -0.398,4.5 -1.036,7.662 -1.501,9.521 -0.039,0.154 -0.073,0.309 -0.104,0.465 -0.383,1.913 -0.962,3.565 -1.77,5.046 -0.704,1.177 -2.011,3.024 -4.3,5.314 -0.055,0.054 -0.108,0.109 -0.161,0.165 -0.883,0.925 -3.939,3.649 -13.255,8.999 -7.805,4.274 -16.859,8.274 -26.82,11.856 -11.216,3.906 -23.582,7.118 -36.756,9.544 -13.9,2.561 -28.989,3.859 -44.848,3.859 -31.195,0 -59.697,-4.855 -84.713,-14.431 -24.71,-9.458 -45.988,-23.783 -63.266,-42.6 C 126.847,416.156 113.316,392.177 104.018,363.686 94.584,334.9 89.8,300.786 89.8,262.288 c 0,-39.198 5.276,-74.409 15.68,-104.655 10.322,-30.007 24.867,-55.5 43.231,-75.772 C 166.854,61.833 189.114,46.357 214.888,35.856 240.594,25.335 269.49,20 300.773,20 c 12.499,0 24.754,1.087 36.524,3.249 11.644,2.02 22.576,4.8 32.494,8.265 0.033,0.012 0.067,0.023 0.102,0.035 9.52,3.211 18.174,6.993 26.453,11.559 9.423,5.43 13.502,8.632 15.266,10.375 3.364,3.501 4.718,5.395 5.242,6.259 0.769,1.42 1.354,3.195 1.741,5.28 0.017,0.09 0.034,0.18 0.054,0.27 0.743,3.473 1.257,7.042 1.571,10.916 0.325,4.011 0.471,9.076 0.471,16.42 0,6.976 -0.238,12.954 -0.708,17.769 -0.488,5.009 -1.299,8.115 -1.914,9.873 -0.619,1.513 -1.135,2.317 -1.373,2.648 -0.898,-0.229 -3.258,-1.091 -7.52,-4.312 -5.934,-4.482 -13.611,-9.518 -22.82,-14.965 -9.47,-5.601 -20.879,-10.711 -33.885,-15.178 -13.324,-4.623 -29.322,-6.966 -47.548,-6.966 -20.31,0 -38.865,4.269 -55.209,12.718 -16.17,8.496 -30.062,20.623 -41.313,36.077 -11.125,15.415 -19.646,34.081 -25.323,55.465 -2.106,7.887 -3.837,16.297 -5.146,24.998 -0.821,5.461 2.94,10.555 8.401,11.376 5.462,0.827 10.555,-2.939 11.376,-8.401 1.198,-7.967 2.777,-15.642 4.695,-22.827 5.05,-19.027 12.524,-35.481 22.189,-48.873 9.54,-13.103 20.799,-22.952 34.364,-30.079 13.418,-6.937 28.884,-10.454 45.966,-10.454 15.989,0 29.781,1.972 41.022,5.872 11.754,4.038 21.924,8.575 30.227,13.487 8.564,5.066 15.612,9.679 20.947,13.709 7.513,5.676 14.051,8.436 19.988,8.436 4.558,0 8.852,-1.615 12.371,-4.63 2.9,-2.454 5.331,-6.101 7.227,-10.837 0.043,-0.108 0.084,-0.217 0.124,-0.327 1.465,-4.069 2.494,-9.071 3.06,-14.867 0.532,-5.457 0.802,-12.088 0.802,-19.71 0,-7.905 -0.165,-13.469 -0.536,-18.038 -0.381,-4.696 -1.009,-9.066 -1.921,-13.353 -0.796,-4.217 -2.127,-8.025 -3.959,-11.322 -0.04,-0.072 -0.08,-0.143 -0.122,-0.213 -1.672,-2.842 -4.355,-6.167 -8.206,-10.167 -0.044,-0.046 -0.089,-0.092 -0.134,-0.137 -3.869,-3.868 -10.086,-8.211 -19.563,-13.667 -0.051,-0.03 -0.103,-0.059 -0.155,-0.088 -9.218,-5.091 -19.23,-9.475 -29.761,-13.03 C 365.398,8.798 353.416,5.746 340.813,3.561 327.951,1.198 314.481,0 300.773,0 266.878,0 235.435,5.836 207.328,17.341 178.769,28.976 154.061,46.166 133.89,68.434 c -20.192,22.29 -36.113,50.112 -47.321,82.694 -11.126,32.345 -16.768,69.745 -16.768,111.161 0,40.617 5.118,76.828 15.208,107.615 10.195,31.239 25.183,57.698 44.524,78.618 19.368,21.093 43.197,37.15 70.825,47.727 27.307,10.451 58.215,15.751 91.863,15.751 17.071,0 33.379,-1.41 48.471,-4.19 14.175,-2.611 27.535,-6.085 39.806,-10.36 11.069,-3.98 21.111,-8.427 29.848,-13.219 0.057,-0.03 0.112,-0.062 0.168,-0.094 8.732,-5.01 14.384,-8.984 17.768,-12.496 3.055,-3.066 5.538,-6.209 7.382,-9.344 0.042,-0.07 0.082,-0.142 0.122,-0.213 1.796,-3.232 3.11,-6.833 3.908,-10.705 0.89,-3.618 1.568,-7.895 1.966,-12.39 0.369,-4.191 0.541,-9.466 0.541,-16.599 -0.002,-9.237 -0.262,-16.534 -0.801,-22.328 z"
         id="path1112" />
      <path
         d="m 184.69,247.132 c -5.523,0 -9.996,4.477 -9.996,10 0,5.523 4.48,10 10.003,10 5.523,0 10,-4.477 10,-10 0,-5.523 -4.477,-10 -10,-10 z"
         id="path1114" />
    </g>
  </g>
  <g
     id="g1140"
     transform="translate(887.72558,0.66602)">
    <path
       clip-rule="evenodd"
       d="m 401.576,462.687 c 0,7.395 -0.26,13.493 -0.908,18.554 -0.649,4.93 -1.557,8.952 -2.855,11.937 -1.297,3.114 -2.854,5.319 -4.801,6.747 -1.816,1.427 -4.022,2.076 -6.228,2.076 H 140.006 c -8.304,0 -15.31,-2.465 -21.019,-7.396 -5.709,-4.93 -8.563,-12.975 -8.563,-24.133 V 41.529 c 0,-11.158 2.854,-19.203 8.563,-24.133 5.709,-4.93 12.715,-7.395 21.019,-7.395 h 245.611 c 2.205,0 4.282,0.648 6.098,1.946 1.687,1.298 3.244,3.503 4.541,6.617 1.167,3.244 2.206,7.266 2.854,12.196 0.648,5.06 0.908,11.288 0.908,18.943 0,7.136 -0.26,13.104 -0.908,18.165 -0.649,4.93 -1.557,8.952 -2.854,11.936 -1.298,3.114 -2.855,5.32 -4.541,6.747 -1.816,1.427 -3.893,2.076 -6.098,2.076 H 210.07 v 119.886 h 147.911 c 2.335,0 4.411,0.648 6.228,2.076 1.946,1.428 3.503,3.503 4.801,6.487 1.298,2.855 2.206,6.747 2.854,11.807 0.649,4.93 0.909,10.899 0.909,17.905 0,7.395 -0.26,13.494 -0.909,18.294 -0.649,4.801 -1.557,8.693 -2.854,11.547 -1.297,2.984 -2.854,5.06 -4.801,6.228 -1.816,1.297 -3.892,1.946 -6.228,1.946 H 210.07 v 138.57 h 176.715 c 2.335,0 4.412,0.649 6.228,2.076 1.946,1.427 3.503,3.633 4.801,6.747 1.298,2.984 2.206,7.006 2.855,11.937 0.647,5.06 0.907,11.158 0.907,18.554 z"
       fill="#ffc144"
       fill-rule="evenodd"
       id="path1132" />
    <g
       id="g1138">
      <path
         d="m 410.583,442.829 c -0.812,-6.165 -1.945,-10.792 -3.568,-14.55 -1.994,-4.757 -4.598,-8.291 -7.955,-10.795 -3.483,-2.689 -7.724,-4.11 -12.274,-4.11 H 220.067 l -0.002,-14.287 c -0.001,-5.523 -4.479,-10 -10.002,-9.999 -5.522,10e-4 -9.999,4.479 -9.998,10.001 l 0.004,24.285 c 0.001,5.522 4.478,9.999 10,9.999 h 176.716 c 0.055,0 0.099,0.002 0.133,0.004 0.061,0.046 0.12,0.091 0.182,0.136 0.006,0.005 0.628,0.478 1.483,2.53 0.02,0.046 0.039,0.092 0.059,0.138 0.585,1.346 1.426,4.044 2.107,9.223 0.564,4.403 0.827,9.895 0.827,17.283 0,7.388 -0.263,12.879 -0.823,17.25 -0.686,5.211 -1.526,7.909 -2.11,9.254 -0.021,0.046 -0.04,0.093 -0.06,0.14 -0.855,2.052 -1.478,2.525 -1.483,2.53 -0.06,0.043 -0.117,0.086 -0.175,0.131 -0.031,0.004 -0.077,0.009 -0.14,0.009 H 140.007 c -5.878,0 -10.615,-1.624 -14.483,-4.964 -3.384,-2.922 -5.1,-8.496 -5.1,-16.565 V 41.529 c 0,-8.069 1.716,-13.643 5.1,-16.565 3.868,-3.34 8.605,-4.964 14.483,-4.964 h 245.61 c 0.04,0 0.072,0.001 0.1,0.004 0.227,0.285 0.678,0.939 1.218,2.188 1.021,2.903 1.781,6.222 2.257,9.838 0.564,4.408 0.828,10.023 0.828,17.672 0,7.117 -0.264,12.485 -0.824,16.86 -0.686,5.214 -1.525,7.911 -2.109,9.255 -0.021,0.046 -0.04,0.092 -0.06,0.139 -0.621,1.491 -1.177,2.289 -1.495,2.67 H 210.069 c -5.522,0 -10,4.477 -10,10 v 119.886 c 0,5.523 4.478,10 10,10 H 357.98 c 0.056,0 0.1,0.002 0.134,0.004 0.061,0.046 0.12,0.091 0.181,0.136 0.469,0.344 1.017,1.199 1.543,2.409 0.021,0.051 0.045,0.103 0.067,0.153 0.567,1.248 1.382,3.812 2.044,8.972 0.554,4.209 0.823,9.64 0.823,16.601 0,7.333 -0.268,12.88 -0.818,16.954 -0.675,4.991 -1.486,7.513 -2.049,8.749 -0.022,0.051 -0.046,0.103 -0.068,0.154 -0.479,1.104 -0.841,1.601 -0.972,1.761 -0.159,0.101 -0.316,0.207 -0.47,0.316 -0.064,0.046 -0.116,0.083 -0.415,0.083 H 210.069 c -5.522,0 -10,4.477 -10,10 v 24.285 c 0,5.523 4.478,10 10,10 5.522,0 10,-4.477 10,-10 V 294.804 H 357.98 c 4.321,0 8.265,-1.208 11.728,-3.589 3.564,-2.249 6.328,-5.696 8.438,-10.522 1.653,-3.664 2.807,-8.201 3.628,-14.271 0.681,-5.042 0.998,-11.28 0.998,-19.633 0,-7.843 -0.325,-14.126 -0.989,-19.178 -0.8,-6.229 -1.955,-10.871 -3.636,-14.595 -1.969,-4.503 -4.553,-7.905 -7.893,-10.393 -3.529,-2.727 -7.658,-4.109 -12.274,-4.109 H 220.069 V 98.626 h 165.548 c 4.524,0 8.77,-1.457 12.277,-4.214 0.095,-0.074 0.188,-0.15 0.279,-0.227 2.979,-2.521 5.431,-6.042 7.284,-10.464 1.622,-3.756 2.756,-8.383 3.571,-14.583 0.676,-5.272 0.99,-11.448 0.99,-19.436 0,-8.519 -0.314,-14.942 -0.994,-20.247 -0.68,-5.169 -1.81,-9.973 -3.358,-14.278 -0.057,-0.156 -0.116,-0.31 -0.18,-0.462 C 403.536,10.036 400.954,6.438 397.812,4.02 397.718,3.948 397.623,3.877 397.526,3.808 394.039,1.317 389.921,0 385.617,0 h -245.61 c -10.733,0 -20.005,3.306 -27.556,9.827 -7.98,6.892 -12.027,17.558 -12.027,31.702 v 428.942 c 0,14.143 4.047,24.809 12.027,31.702 7.551,6.521 16.822,9.827 27.556,9.827 h 246.778 c 4.551,0 8.791,-1.42 12.274,-4.11 3.359,-2.505 5.963,-6.041 7.958,-10.802 1.621,-3.757 2.755,-8.382 3.569,-14.577 0.675,-5.267 0.989,-11.566 0.989,-19.825 0,-8.259 -0.313,-14.557 -0.992,-19.857 z"
         id="path1134" />
      <path
         d="m 210.069,344.088 h -0.007 c -5.522,0 -9.996,4.477 -9.996,10 0,5.523 4.48,10 10.003,10 5.523,0 10,-4.477 10,-10 0,-5.523 -4.477,-10 -10,-10 z"
         id="path1136" />
    </g>
  </g>
  <g
     id="g1162"
     transform="matrix(1,0,0,1.000002,1619.083,0.667)">
    <path
       clip-rule="evenodd"
       d="m 443.115,50.806 c 0,7.361 -0.258,13.559 -0.904,18.853 -0.645,5.166 -1.55,9.298 -2.841,12.397 -1.291,3.228 -2.841,5.552 -4.778,6.973 -1.808,1.549 -4.003,2.324 -6.199,2.324 H 305.974 v 394.762 c 0,2.453 -0.775,4.778 -2.453,6.844 -1.679,1.937 -4.391,3.616 -8.135,4.907 -3.745,1.162 -8.91,2.195 -15.367,2.97 C 273.562,501.612 265.556,502 256,502 c -9.556,0 -17.562,-0.388 -24.019,-1.162 -6.456,-0.775 -11.622,-1.808 -15.367,-2.97 -3.745,-1.292 -6.457,-2.97 -8.135,-4.907 -1.679,-2.066 -2.453,-4.391 -2.453,-6.844 V 91.354 H 83.606 c -2.453,0 -4.649,-0.775 -6.457,-2.324 -1.679,-1.421 -3.228,-3.745 -4.52,-6.973 -1.162,-3.099 -2.195,-7.232 -2.841,-12.397 -0.646,-5.294 -0.904,-11.493 -0.904,-18.853 0,-7.49 0.258,-13.946 0.904,-19.241 0.646,-5.294 1.679,-9.556 2.841,-12.655 1.291,-3.228 2.841,-5.424 4.52,-6.844 C 78.957,10.645 81.152,10 83.606,10 h 344.787 c 2.195,0 4.262,0.645 6.199,2.066 1.937,1.42 3.487,3.616 4.778,6.844 1.291,3.099 2.196,7.361 2.841,12.655 0.645,5.295 0.904,11.751 0.904,19.241 z"
       fill="#8481e2"
       fill-rule="evenodd"
       id="path1154"
       style="fill:#60b8ff;fill-opacity:1" />
    <g
       id="g1160">
      <path
         d="M 452.137,30.355 C 451.341,23.833 450.226,18.992 448.628,15.131 446.644,10.194 443.985,6.553 440.505,4.002 436.885,1.347 432.81,0 428.393,0 H 83.606 c -4.768,0 -9.137,1.453 -12.636,4.203 -0.095,0.074 -0.188,0.151 -0.28,0.229 -3.05,2.58 -5.521,6.202 -7.346,10.765 -0.027,0.067 -0.053,0.134 -0.078,0.202 -1.532,4.086 -2.709,9.258 -3.404,14.956 -0.658,5.396 -0.978,12.085 -0.978,20.451 0,8.217 0.311,14.592 0.981,20.094 0.696,5.573 1.84,10.507 3.4,14.668 0.025,0.067 0.051,0.135 0.078,0.202 1.876,4.692 4.348,8.358 7.297,10.853 3.611,3.095 8.095,4.731 12.965,4.731 h 112.419 l 0.003,142.381 c 0,5.523 4.478,10 10,10 5.523,0 10,-4.477 10,-10 L 216.024,91.354 c 0,-5.523 -4.478,-10 -10,-10 H 83.606 c -0.014,0 -0.026,0 -0.038,0 C 83.39,81.162 82.74,80.379 81.955,78.445 81.264,76.574 80.327,73.34 79.716,68.45 79.149,63.801 78.885,58.194 78.885,50.806 c 0,-7.547 0.271,-13.445 0.831,-18.03 0.658,-5.397 1.67,-8.708 2.239,-10.253 0.563,-1.382 1.063,-2.136 1.364,-2.511 C 83.392,20.005 83.487,20 83.606,20 l 344.864,0.001 c 0.019,0.007 0.091,0.043 0.209,0.129 0.006,0.004 0.588,0.448 1.405,2.492 0.018,0.044 0.036,0.088 0.054,0.132 0.596,1.43 1.452,4.33 2.146,10.021 0.56,4.584 0.831,10.482 0.831,18.03 0,7.388 -0.264,12.995 -0.827,17.614 -0.549,4.391 -1.271,7.686 -2.149,9.792 -0.019,0.043 -0.036,0.088 -0.054,0.132 -0.814,2.037 -1.413,2.622 -1.407,2.622 h 10e-4 c -0.169,0.124 -0.335,0.254 -0.496,0.389 H 305.974 c -5.522,0 -10,4.477 -10,10 v 394.762 c 0,0.143 0,0.23 -0.104,0.389 -0.282,0.262 -1.245,1.028 -3.603,1.858 -2.335,0.712 -6.53,1.716 -13.441,2.545 C 272.795,491.632 265.115,492 256,492 c -9.116,0 -16.796,-0.367 -22.828,-1.091 -6.91,-0.829 -11.105,-1.833 -13.44,-2.545 -2.359,-0.831 -3.322,-1.598 -3.603,-1.859 -0.104,-0.158 -0.104,-0.246 -0.104,-0.389 V 333.735 c 0,-5.523 -4.478,-10 -10,-10 -5.522,0 -10,4.477 -10,10 v 152.381 c 0,4.825 1.622,9.372 4.691,13.149 0.067,0.083 0.135,0.164 0.205,0.244 2.89,3.335 7.073,5.963 12.433,7.811 0.098,0.034 0.196,0.066 0.295,0.097 4.504,1.398 10.271,2.525 17.141,3.349 6.818,0.818 15.3,1.233 25.21,1.233 9.909,0 18.391,-0.415 25.209,-1.233 6.871,-0.824 12.638,-1.951 17.142,-3.349 0.099,-0.031 0.197,-0.063 0.295,-0.097 5.359,-1.848 9.543,-4.476 12.433,-7.811 0.07,-0.081 0.14,-0.163 0.207,-0.246 3.067,-3.779 4.689,-8.325 4.689,-13.147 V 101.354 h 112.419 c 4.509,0 8.903,-1.591 12.417,-4.488 3.285,-2.51 5.846,-6.123 7.818,-11.03 1.601,-3.867 2.715,-8.616 3.509,-14.966 0.667,-5.472 0.978,-11.847 0.978,-20.064 -10e-4,-8.366 -0.32,-15.055 -0.979,-20.451 z"
         id="path1156" />
      <path
         d="m 206.032,298.735 c 5.522,0 10,-4.477 10,-10 0,-5.523 -4.478,-10 -10,-10 h -0.007 c -5.522,0 -9.996,4.477 -9.996,10 0,5.523 4.481,10 10.003,10 z"
         id="path1158" />
    </g>
  </g>
  <g
     id="g1184"
     transform="translate(2028.825,1.123)">
    <path
       clip-rule="evenodd"
       d="m 452.495,314.263 c 0,29.449 -4.316,55.851 -13.075,79.08 -8.632,23.356 -21.325,43.031 -38.208,59.152 -16.882,16.121 -37.699,28.434 -62.452,36.811 -24.878,8.505 -53.311,12.694 -85.553,12.694 -30.21,0 -57.375,-3.808 -81.365,-11.297 -24.118,-7.616 -44.427,-19.04 -61.056,-34.4 C 94.157,440.944 81.464,421.777 72.705,398.801 63.947,375.826 59.504,349.043 59.504,318.324 V 25.613 c 0,-2.412 0.762,-4.696 2.285,-6.728 1.396,-1.904 4.062,-3.554 7.87,-4.824 3.808,-1.269 8.885,-2.158 15.105,-2.919 C 90.857,10.381 98.854,10 108.501,10 c 9.266,0 17.136,0.381 23.229,1.142 6.22,0.762 11.17,1.65 14.852,2.919 3.681,1.269 6.346,2.92 7.997,4.824 1.65,2.031 2.412,4.316 2.412,6.728 v 284.334 c 0,19.167 2.412,35.669 7.108,49.759 4.697,13.963 11.424,25.641 20.31,34.78 8.758,9.139 19.294,16.121 31.607,20.69 12.313,4.57 26.022,6.855 41.127,6.855 15.359,0 29.195,-2.412 41.254,-7.108 12.186,-4.697 22.468,-11.552 30.972,-20.564 8.378,-9.139 14.978,-20.31 19.548,-33.511 4.569,-13.328 6.854,-28.433 6.854,-45.316 V 25.613 c 0,-2.412 0.762,-4.696 2.285,-6.728 1.397,-1.904 4.062,-3.554 7.743,-4.824 3.681,-1.269 8.759,-2.158 15.105,-2.919 6.346,-0.761 14.217,-1.142 23.61,-1.142 9.393,0 17.136,0.381 23.229,1.142 6.093,0.762 11.043,1.65 14.724,2.919 3.681,1.269 6.347,2.92 7.743,4.824 1.523,2.031 2.285,4.316 2.285,6.728 z"
       fill="#cbe558"
       fill-rule="evenodd"
       id="path1176"
       style="fill:#43cd8e;fill-opacity:1" />
    <g
       id="g1182">
      <path
         d="M 458.24,12.926 C 455.608,9.362 451.398,6.563 445.728,4.609 441.654,3.204 436.49,2.159 428.983,1.22 422.509,0.41 414.276,0 404.514,0 c -9.746,0 -18.09,0.408 -24.802,1.214 -7.777,0.933 -13.074,1.98 -17.173,3.394 -5.674,1.956 -9.884,4.755 -12.516,8.321 -2.782,3.728 -4.252,8.113 -4.252,12.685 v 289.919 c 0,15.696 -2.125,29.852 -6.304,42.044 -4.039,11.667 -9.9,21.751 -17.421,29.972 -7.549,7.984 -16.462,13.886 -27.278,18.056 -10.949,4.264 -23.608,6.426 -37.625,6.426 -13.844,0 -26.51,-2.096 -37.648,-6.23 -10.702,-3.971 -20.077,-10.106 -27.916,-18.286 -7.715,-7.936 -13.77,-18.36 -17.997,-30.985 -4.373,-13.058 -6.59,-28.73 -6.591,-46.583 l -0.004,-97.167 c 0,-5.523 -4.478,-10 -10,-10 -5.523,0 -10,4.478 -10,10 l 0.004,97.167 c 10e-4,20.016 2.567,37.825 7.626,52.933 5.187,15.493 12.798,28.472 22.572,38.524 9.897,10.328 21.79,18.115 35.348,23.146 13.372,4.963 28.379,7.479 44.606,7.479 16.51,0 31.61,-2.621 44.85,-7.777 13.469,-5.192 25.127,-12.941 34.649,-23.032 0.033,-0.035 0.066,-0.07 0.099,-0.106 9.403,-10.258 16.679,-22.705 21.636,-37.025 4.907,-14.313 7.395,-30.65 7.395,-48.559 V 25.613 c 0,-0.135 0,-0.316 0.221,-0.638 0.225,-0.176 1.076,-0.773 3.068,-1.459 2.632,-0.908 6.896,-1.708 13.036,-2.444 C 388.019,20.36 395.561,20 404.514,20 c 8.936,0 16.333,0.358 21.988,1.065 5.911,0.739 10.067,1.541 12.706,2.451 1.991,0.687 2.842,1.283 3.067,1.459 0.221,0.323 0.221,0.503 0.221,0.638 v 288.65 c 0,28.254 -4.183,53.674 -12.455,75.614 -8.058,21.803 -20.08,40.438 -35.734,55.386 -15.808,15.095 -35.575,26.727 -58.78,34.581 C 311.93,487.91 284.234,492 253.207,492 224.242,492 197.87,488.352 174.853,481.167 152.257,474.032 132.985,463.195 117.571,448.958 102.164,434.728 90.213,416.654 82.05,395.241 73.726,373.405 69.505,347.527 69.505,318.326 V 25.613 c 0,-0.134 0,-0.313 0.215,-0.63 0.233,-0.178 1.094,-0.765 3.103,-1.434 2.81,-0.937 6.991,-1.725 13.183,-2.483 C 91.659,20.358 99.228,20 108.501,20 c 8.936,0 16.334,0.358 22.013,1.068 6.042,0.74 10.111,1.518 12.808,2.448 2.354,0.811 3.329,1.576 3.609,1.83 0.059,0.097 0.059,0.155 0.059,0.267 v 97.167 c 0,5.523 4.477,10 10,10 5.523,0 10,-4.477 10,-10 V 25.613 c 0,-4.782 -1.608,-9.289 -4.65,-13.033 -0.067,-0.083 -0.135,-0.164 -0.204,-0.244 C 159.274,9.034 155.137,6.433 149.842,4.608 145.73,3.19 140.519,2.144 132.971,1.219 126.496,0.41 118.264,0 108.501,0 98.401,0 89.998,0.41 83.548,1.217 75.92,2.151 70.66,3.187 66.497,4.575 60.715,6.502 56.431,9.31 53.761,12.923 50.976,16.652 49.504,21.04 49.504,25.614 v 292.711 c 0,31.645 4.662,59.919 13.856,84.039 9.273,24.323 22.946,44.942 40.64,61.285 17.593,16.251 39.405,28.561 64.861,36.6 24.98,7.798 53.358,11.751 84.346,11.751 33.232,0 63.105,-4.452 88.76,-13.222 25.961,-8.787 48.218,-21.925 66.152,-39.05 17.873,-17.068 31.56,-38.236 40.658,-62.857 9.103,-24.142 13.718,-51.935 13.718,-82.608 V 25.613 c 0,-4.572 -1.471,-8.959 -4.255,-12.687 z"
         id="path1178" />
      <path
         d="m 156.99,157.78 h -0.007 c -5.523,0 -9.996,4.477 -9.996,10 0,5.523 4.48,10 10.003,10 5.523,0 10,-4.477 10,-10 0,-5.523 -4.477,-10 -10,-10 z"
         id="path1180" />
    </g>
  </g>
  <g
     id="g1206"
     transform="translate(2406.705)">
    <path
       clip-rule="evenodd"
       d="m 411.348,351.039 c 0,25.076 -4.639,46.893 -13.917,65.826 -9.404,18.807 -21.942,34.48 -37.866,47.143 -16.049,12.538 -34.606,22.067 -55.921,28.462 -21.314,6.395 -44.134,9.53 -68.458,9.53 -16.425,0 -31.596,-1.379 -45.765,-4.137 -14.043,-2.758 -26.456,-6.019 -37.239,-9.905 -10.783,-3.762 -19.81,-7.773 -27.082,-12.036 -7.272,-4.263 -12.413,-8.025 -15.673,-11.159 -3.135,-3.26 -5.391,-7.899 -6.771,-13.917 -1.379,-6.018 -2.006,-14.545 -2.006,-25.829 0,-7.648 0.251,-13.917 0.752,-19.058 0.502,-5.141 1.254,-9.279 2.382,-12.539 1.128,-3.134 2.633,-5.391 4.388,-6.771 1.881,-1.379 4.012,-2.006 6.52,-2.006 3.385,0 8.275,2.006 14.545,6.144 6.269,4.012 14.294,8.526 24.073,13.416 9.78,4.89 21.566,9.404 35.232,13.416 13.541,4.137 29.34,6.144 47.27,6.144 11.786,0 22.318,-1.379 31.596,-4.137 9.403,-2.884 17.303,-6.771 23.822,-11.911 6.52,-5.141 11.41,-11.41 14.921,-18.933 3.385,-7.523 5.14,-15.924 5.14,-25.202 0,-10.783 -2.883,-20.061 -8.776,-27.71 -5.893,-7.773 -13.541,-14.544 -23.071,-20.563 -9.403,-6.018 -20.186,-11.661 -32.223,-16.927 -11.911,-5.266 -24.324,-10.783 -37.113,-16.676 -12.789,-5.893 -25.202,-12.538 -37.113,-20.061 -12.037,-7.398 -22.82,-16.3 -32.223,-26.706 -9.529,-10.407 -17.177,-22.694 -23.07,-36.988 -5.893,-14.168 -8.777,-31.22 -8.777,-51.031 0,-22.694 4.263,-42.755 12.663,-60.058 8.4,-17.177 19.811,-31.471 34.104,-42.881 14.419,-11.41 31.22,-19.935 50.655,-25.578 C 225.783,12.758 246.47,10 268.287,10 c 11.159,0 22.443,0.878 33.728,2.633 11.284,1.63 21.817,4.012 31.596,6.896 9.78,3.009 18.431,6.269 26.08,9.905 7.523,3.761 12.538,6.77 15.046,9.278 2.382,2.382 4.012,4.514 4.89,6.144 0.878,1.755 1.63,4.012 2.257,6.896 0.627,2.759 1.003,6.269 1.254,10.657 0.25,4.263 0.376,9.529 0.376,15.924 0,7.021 -0.126,13.04 -0.502,17.93 -0.376,4.89 -1.003,8.902 -1.881,12.162 -0.878,3.135 -2.131,5.517 -3.636,6.896 -1.63,1.505 -3.761,2.257 -6.52,2.257 -2.633,0 -6.896,-1.756 -12.789,-5.141 -5.893,-3.385 -13.165,-7.147 -21.691,-11.285 -8.652,-4.012 -18.557,-7.648 -29.841,-10.908 -11.284,-3.385 -23.572,-5.015 -37.113,-5.015 -10.532,0 -19.685,1.254 -27.584,3.887 -7.774,2.507 -14.294,6.143 -19.56,10.657 -5.266,4.514 -9.278,9.905 -11.786,16.3 -2.632,6.394 -3.887,13.165 -3.887,20.186 0,10.533 2.884,19.685 8.651,27.333 5.768,7.774 13.541,14.67 23.196,20.688 9.654,5.893 20.688,11.535 32.975,16.801 12.162,5.266 24.7,10.908 37.489,16.676 12.789,5.893 25.327,12.538 37.489,20.061 12.288,7.523 23.196,16.425 32.85,26.832 9.529,10.407 17.303,22.569 23.196,36.737 5.894,14.044 8.778,30.594 8.778,49.652 z"
       fill="#ffc144"
       fill-rule="evenodd"
       id="path1198" />
    <g
       id="g1204">
      <path
         d="m 411.805,297.548 c -6.214,-14.94 -14.644,-28.281 -25.098,-39.698 -10.195,-10.99 -21.958,-20.599 -34.921,-28.535 -12.064,-7.463 -25.04,-14.407 -38.639,-20.672 -13.535,-6.104 -25.709,-11.577 -37.661,-16.752 -11.703,-5.016 -22.37,-10.448 -31.625,-16.096 -8.618,-5.372 -15.5,-11.482 -20.501,-18.223 -4.466,-5.922 -6.637,-12.894 -6.637,-21.313 0,-5.816 1.055,-11.327 3.134,-16.38 0.021,-0.051 0.042,-0.103 0.063,-0.154 1.853,-4.723 4.791,-8.765 8.985,-12.359 4.383,-3.758 9.808,-6.696 16.214,-8.764 6.811,-2.27 14.799,-3.374 24.422,-3.374 12.736,0 23.936,1.502 34.239,4.593 0.032,0.01 0.064,0.02 0.098,0.029 10.602,3.063 20.134,6.541 28.334,10.338 8.633,4.192 15.5,7.764 20.993,10.919 7.894,4.535 13.208,6.47 17.77,6.47 6.602,0 10.879,-2.67 13.278,-4.886 2.919,-2.676 5.108,-6.569 6.534,-11.667 1.054,-3.915 1.772,-8.492 2.195,-13.995 0.362,-4.715 0.531,-10.656 0.531,-18.697 0,-6.604 -0.129,-12.005 -0.394,-16.493 -0.303,-5.32 -0.761,-9.115 -1.465,-12.209 -0.795,-3.664 -1.805,-6.688 -3.085,-9.249 -0.045,-0.09 -0.091,-0.179 -0.139,-0.267 -1.433,-2.661 -3.662,-5.512 -6.623,-8.473 -3.266,-3.266 -8.542,-6.601 -17.646,-11.152 -0.059,-0.03 -0.118,-0.059 -0.179,-0.087 C 355.993,16.604 347.019,13.192 336.549,9.971 336.512,9.959 336.475,9.948 336.437,9.937 325.708,6.773 314.624,4.353 303.496,2.743 291.778,0.923 279.931,0 268.287,0 c -22.844,0 -44.621,2.959 -64.728,8.797 -20.461,5.94 -38.652,15.139 -54.104,27.366 -15.461,12.341 -27.858,27.92 -36.861,46.329 -9.069,18.681 -13.668,40.357 -13.668,64.426 0,21.186 3.211,39.647 9.532,54.842 6.315,15.319 14.706,28.753 24.896,39.88 9.284,10.274 20.002,19.332 31.855,26.921 4.652,2.978 10.835,1.621 13.813,-3.03 2.978,-4.651 1.621,-10.836 -3.03,-13.814 -10.354,-6.63 -19.708,-14.532 -27.845,-23.535 -8.769,-9.577 -15.703,-20.713 -21.211,-34.075 -5.315,-12.778 -8.011,-28.655 -8.011,-47.19 0,-21.018 3.923,-39.754 11.647,-55.665 7.68,-15.703 18.23,-28.979 31.325,-39.433 C 175.465,41.082 190.918,33.292 209.134,28.003 227.43,22.693 247.331,20 268.287,20 c 10.636,0 21.466,0.846 32.19,2.514 0.036,0.005 0.072,0.011 0.107,0.016 10.185,1.471 20.325,3.683 30.142,6.574 9.47,2.916 17.514,5.965 24.584,9.32 8.701,4.355 11.475,6.479 12.355,7.36 2.037,2.037 2.868,3.322 3.095,3.706 0.354,0.748 0.853,2.095 1.371,4.478 0.456,2.008 0.79,4.955 1.022,9.029 0.238,4.054 0.359,9.213 0.359,15.336 0,7.517 -0.15,12.971 -0.473,17.164 -0.322,4.19 -0.85,7.665 -1.54,10.234 -0.224,0.798 -0.441,1.369 -0.615,1.758 -0.885,-0.258 -3.136,-1.09 -7.719,-3.723 -5.916,-3.398 -13.213,-7.196 -22.305,-11.609 -0.054,-0.026 -0.106,-0.051 -0.16,-0.076 -9.127,-4.233 -19.633,-8.079 -31.227,-11.43 -12.18,-3.648 -25.244,-5.421 -39.935,-5.421 -11.807,0 -21.864,1.439 -30.654,4.37 -8.853,2.856 -16.59,7.09 -22.998,12.583 -6.623,5.677 -11.521,12.46 -14.558,20.164 -3.058,7.458 -4.607,15.503 -4.607,23.914 0,12.745 3.589,23.967 10.621,33.292 6.455,8.701 15.182,16.512 26.017,23.265 10.146,6.193 21.669,12.067 34.212,17.442 11.791,5.105 23.892,10.545 37.278,16.582 12.788,5.892 25.039,12.447 36.452,19.507 11.606,7.105 21.662,15.317 30.697,25.056 8.838,9.653 16.017,21.033 21.35,33.854 5.307,12.648 7.998,28.052 7.998,45.782 0,23.624 -4.219,43.716 -12.862,61.354 -8.847,17.693 -20.342,32.017 -35.077,43.735 -15.13,11.82 -32.84,20.824 -52.639,26.764 -20.143,6.043 -42.208,9.107 -65.585,9.107 -15.846,0 -30.19,-1.293 -43.836,-3.95 -13.926,-2.735 -25.628,-5.843 -35.776,-9.5 -0.032,-0.012 -0.064,-0.023 -0.098,-0.034 -10.118,-3.53 -18.637,-7.305 -25.318,-11.221 -7.573,-4.44 -11.586,-7.646 -13.642,-9.592 -1.787,-1.928 -3.17,-4.986 -4.111,-9.093 -1.164,-5.076 -1.754,-13.014 -1.754,-23.594 0,-7.307 0.23,-13.223 0.706,-18.088 0.429,-4.402 1.054,-7.825 1.858,-10.178 0.433,-1.187 0.825,-1.813 1.017,-2.08 0.087,-0.014 0.223,-0.028 0.413,-0.028 0.025,0.001 2.609,0.216 9.086,4.491 0.038,0.026 0.077,0.051 0.116,0.076 6.828,4.371 15.236,9.06 24.992,13.938 10.394,5.196 22.787,9.924 36.837,14.051 14.279,4.356 31.148,6.564 50.138,6.564 12.694,0 24.283,-1.532 34.528,-4.577 10.803,-3.313 19.661,-7.769 27.081,-13.619 7.626,-6.012 13.612,-13.602 17.791,-22.557 0.02,-0.042 0.039,-0.083 0.058,-0.125 3.995,-8.879 6.021,-18.739 6.021,-29.306 0,-13.088 -3.652,-24.464 -10.808,-33.75 -6.603,-8.71 -15.01,-16.226 -25.648,-22.944 -8.651,-5.537 -18.586,-10.868 -29.529,-15.847 -5.025,-2.285 -10.955,-0.066 -13.243,4.961 -2.287,5.027 -0.065,10.957 4.962,13.244 10.081,4.586 19.175,9.46 27.08,14.52 8.626,5.448 15.313,11.384 20.488,18.211 4.508,5.849 6.698,12.917 6.698,21.605 0,7.693 -1.424,14.77 -4.231,21.035 -2.883,6.155 -6.816,11.143 -12.021,15.247 -5.442,4.291 -12.169,7.629 -20.48,10.179 -8.311,2.471 -17.982,3.723 -28.746,3.723 -17.031,0 -31.952,-1.92 -44.348,-5.708 -0.035,-0.011 -0.069,-0.021 -0.105,-0.032 -12.934,-3.797 -24.23,-8.092 -33.577,-12.765 -9.101,-4.55 -16.871,-8.876 -23.098,-12.858 -7.922,-5.22 -14.463,-7.757 -19.992,-7.757 -4.683,0 -8.865,1.326 -12.432,3.941 -0.09,0.066 -0.179,0.133 -0.267,0.202 -3.302,2.595 -5.865,6.378 -7.618,11.245 -0.015,0.04 -0.028,0.079 -0.042,0.119 -1.366,3.948 -2.283,8.664 -2.885,14.836 -0.538,5.515 -0.8,12.067 -0.8,20.03 0,12.422 0.718,21.34 2.26,28.062 1.782,7.782 4.915,14.045 9.31,18.615 0.09,0.094 0.183,0.187 0.276,0.277 4.05,3.895 9.953,8.126 17.547,12.579 7.788,4.565 17.478,8.883 28.797,12.834 11.101,3.998 23.745,7.365 38.671,10.296 14.937,2.908 30.531,4.321 47.675,4.321 25.324,0 49.324,-3.348 71.332,-9.951 22.189,-6.656 42.108,-16.804 59.272,-30.213 16.895,-13.436 30.549,-30.426 40.62,-50.569 9.912,-20.227 14.938,-43.854 14.938,-70.227 0.003,-20.403 -3.212,-38.409 -9.541,-53.492 z"
         id="path1200" />
      <path
         d="m 220.11,281.703 c 0,-5.523 -4.478,-10 -10,-10 h -0.008 c -5.522,0 -9.996,4.477 -9.996,10 0,5.523 4.481,10 10.004,10 5.523,0 10,-4.477 10,-10 z"
         id="path1202" />
    </g>
  </g>
</svg>
